<svg width="18" height="17" viewBox="0 0 18 17" fill="none" xmlns="http://www.w3.org/2000/svg">
<path fill-rule="evenodd" clip-rule="evenodd" d="M12.5082 10.9388L17.2993 15.7165L16.3599 16.6828L11.5688 11.8917C8.81691 14.175 4.75798 13.8993 2.34014 11.2649C-0.0777124 8.63047 -0.00499356 4.56284 2.50547 2.01651C5.01594 -0.529817 9.08213 -0.660223 11.7506 1.72002C14.4191 4.10025 14.7523 8.15487 12.5082 10.9388ZM3.59265 2.94929C1.52724 5.0147 1.45227 8.33953 3.42249 10.4959C5.5789 12.4662 8.90373 12.3912 10.9691 10.3258C13.0346 8.26037 13.1095 4.93554 11.1393 2.77913C8.98289 0.808912 5.65806 0.883877 3.59265 2.94929Z" fill="#636AF6"/>
</svg>
